<mxfile host="app.diagrams.net" modified="2022-12-28T00:37:05.179Z" agent="5.0 (Windows NT 10.0; Win64; x64) AppleWebKit/537.36 (KHTML, like Gecko) Chrome/106.0.0.0 YaBrowser/22.11.5.715 Yowser/2.5 Safari/537.36" etag="GjN45G15Jru30uayUoc5" version="20.7.4" type="github">
  <diagram id="D3cl0jSmkVOGp9D-Y4aR" name="Страница 1">
    <mxGraphModel dx="4367" dy="1749" grid="1" gridSize="10" guides="1" tooltips="1" connect="1" arrows="1" fold="1" page="1" pageScale="1" pageWidth="827" pageHeight="1169" math="0" shadow="0">
      <root>
        <mxCell id="0" />
        <mxCell id="1" parent="0" />
        <mxCell id="ZfB3DJJ1F0PXd_A4hIv3-2" value="Менеджер по работе с заказами" style="whiteSpace=wrap;html=1;" parent="1" vertex="1">
          <mxGeometry x="15" y="80" width="120" height="60" as="geometry" />
        </mxCell>
        <mxCell id="ZfB3DJJ1F0PXd_A4hIv3-5" value="параметры работы с заказом" style="whiteSpace=wrap;html=1;" parent="1" vertex="1">
          <mxGeometry x="150" y="80" width="120" height="60" as="geometry" />
        </mxCell>
        <mxCell id="ZfB3DJJ1F0PXd_A4hIv3-6" value="Добавление нового заказа" style="whiteSpace=wrap;html=1;" parent="1" vertex="1">
          <mxGeometry x="290" y="80" width="120" height="60" as="geometry" />
        </mxCell>
        <mxCell id="ZfB3DJJ1F0PXd_A4hIv3-9" value="" style="endArrow=none;dashed=1;html=1;dashPattern=1 3;strokeWidth=2;startArrow=none;rounded=0;" parent="1" source="ZfB3DJJ1F0PXd_A4hIv3-7" edge="1">
          <mxGeometry width="50" height="50" relative="1" as="geometry">
            <mxPoint x="74.84" y="1152" as="sourcePoint" />
            <mxPoint x="74.5" y="140" as="targetPoint" />
          </mxGeometry>
        </mxCell>
        <mxCell id="ZfB3DJJ1F0PXd_A4hIv3-10" value="" style="endArrow=none;dashed=1;html=1;dashPattern=1 3;strokeWidth=2;startArrow=none;rounded=0;" parent="1" source="ZfB3DJJ1F0PXd_A4hIv3-17" edge="1">
          <mxGeometry width="50" height="50" relative="1" as="geometry">
            <mxPoint x="209.84" y="1152" as="sourcePoint" />
            <mxPoint x="209.50000000000009" y="140" as="targetPoint" />
          </mxGeometry>
        </mxCell>
        <mxCell id="ZfB3DJJ1F0PXd_A4hIv3-11" value="" style="endArrow=none;dashed=1;html=1;dashPattern=1 3;strokeWidth=2;startArrow=none;rounded=0;" parent="1" source="ZfB3DJJ1F0PXd_A4hIv3-29" edge="1">
          <mxGeometry width="50" height="50" relative="1" as="geometry">
            <mxPoint x="349.84000000000003" y="1152" as="sourcePoint" />
            <mxPoint x="349.5000000000001" y="140" as="targetPoint" />
          </mxGeometry>
        </mxCell>
        <mxCell id="ZfB3DJJ1F0PXd_A4hIv3-12" value="" style="endArrow=none;dashed=1;html=1;dashPattern=1 3;strokeWidth=2;startArrow=none;rounded=0;" parent="1" source="ZfB3DJJ1F0PXd_A4hIv3-37" target="ZfB3DJJ1F0PXd_A4hIv3-14" edge="1">
          <mxGeometry width="50" height="50" relative="1" as="geometry">
            <mxPoint x="489.8399999999999" y="1152" as="sourcePoint" />
            <mxPoint x="489.5" y="140" as="targetPoint" />
          </mxGeometry>
        </mxCell>
        <mxCell id="ZfB3DJJ1F0PXd_A4hIv3-14" value="Менеджер по работе с клиентами" style="whiteSpace=wrap;html=1;" parent="1" vertex="1">
          <mxGeometry x="430" y="80" width="120" height="60" as="geometry" />
        </mxCell>
        <mxCell id="ZfB3DJJ1F0PXd_A4hIv3-7" value="" style="whiteSpace=wrap;html=1;" parent="1" vertex="1">
          <mxGeometry x="70" y="600" width="10" height="130" as="geometry" />
        </mxCell>
        <mxCell id="ZfB3DJJ1F0PXd_A4hIv3-15" value="" style="endArrow=none;dashed=1;html=1;dashPattern=1 3;strokeWidth=2;startArrow=none;rounded=0;" parent="1" source="ZfB3DJJ1F0PXd_A4hIv3-24" target="ZfB3DJJ1F0PXd_A4hIv3-7" edge="1">
          <mxGeometry width="50" height="50" relative="1" as="geometry">
            <mxPoint x="74.83999999999992" y="1592" as="sourcePoint" />
            <mxPoint x="74.5" y="580" as="targetPoint" />
          </mxGeometry>
        </mxCell>
        <mxCell id="ZfB3DJJ1F0PXd_A4hIv3-16" value="&amp;nbsp;ввод пароля" style="endArrow=classic;html=1;entryX=-0.054;entryY=0.069;entryDx=0;entryDy=0;exitX=1.267;exitY=0.071;exitDx=0;exitDy=0;rounded=0;entryPerimeter=0;exitPerimeter=0;" parent="1" source="ZfB3DJJ1F0PXd_A4hIv3-7" target="ZfB3DJJ1F0PXd_A4hIv3-17" edge="1">
          <mxGeometry x="-0.04" width="50" height="50" relative="1" as="geometry">
            <mxPoint x="90" y="600" as="sourcePoint" />
            <mxPoint x="200" y="610" as="targetPoint" />
            <mxPoint as="offset" />
          </mxGeometry>
        </mxCell>
        <mxCell id="ZfB3DJJ1F0PXd_A4hIv3-17" value="" style="whiteSpace=wrap;html=1;" parent="1" vertex="1">
          <mxGeometry x="205" y="600" width="10" height="130" as="geometry" />
        </mxCell>
        <mxCell id="ZfB3DJJ1F0PXd_A4hIv3-18" value="" style="endArrow=none;dashed=1;html=1;dashPattern=1 3;strokeWidth=2;startArrow=none;rounded=0;" parent="1" source="ZfB3DJJ1F0PXd_A4hIv3-26" target="ZfB3DJJ1F0PXd_A4hIv3-17" edge="1">
          <mxGeometry width="50" height="50" relative="1" as="geometry">
            <mxPoint x="209.83999999999992" y="1592" as="sourcePoint" />
            <mxPoint x="209.5" y="580" as="targetPoint" />
          </mxGeometry>
        </mxCell>
        <mxCell id="ZfB3DJJ1F0PXd_A4hIv3-22" value="проверка&amp;nbsp;&lt;br&gt;&amp;nbsp;пароля" style="edgeStyle=orthogonalEdgeStyle;html=1;align=left;spacingLeft=2;endArrow=block;entryX=1.117;entryY=0.632;entryDx=0;entryDy=0;entryPerimeter=0;rounded=0;" parent="1" target="ZfB3DJJ1F0PXd_A4hIv3-17" edge="1">
          <mxGeometry x="0.0087" y="-25" relative="1" as="geometry">
            <mxPoint x="215" y="620" as="sourcePoint" />
            <Array as="points">
              <mxPoint x="245" y="620" />
              <mxPoint x="245" y="682" />
            </Array>
            <mxPoint x="220" y="640" as="targetPoint" />
            <mxPoint as="offset" />
          </mxGeometry>
        </mxCell>
        <mxCell id="ZfB3DJJ1F0PXd_A4hIv3-24" value="" style="whiteSpace=wrap;html=1;" parent="1" vertex="1">
          <mxGeometry x="70" y="750" width="10" height="120" as="geometry" />
        </mxCell>
        <mxCell id="ZfB3DJJ1F0PXd_A4hIv3-25" value="" style="endArrow=none;dashed=1;html=1;dashPattern=1 3;strokeWidth=2;startArrow=none;rounded=0;" parent="1" target="ZfB3DJJ1F0PXd_A4hIv3-24" edge="1" source="2SXMuyVqPVE-oEMScqRm-4">
          <mxGeometry width="50" height="50" relative="1" as="geometry">
            <mxPoint x="73" y="1720" as="sourcePoint" />
            <mxPoint x="74.98878101402374" y="730" as="targetPoint" />
          </mxGeometry>
        </mxCell>
        <mxCell id="ZfB3DJJ1F0PXd_A4hIv3-27" value="" style="endArrow=none;dashed=1;html=1;dashPattern=1 3;strokeWidth=2;rounded=0;" parent="1" target="ZfB3DJJ1F0PXd_A4hIv3-26" edge="1">
          <mxGeometry width="50" height="50" relative="1" as="geometry">
            <mxPoint x="210" y="1720" as="sourcePoint" />
            <mxPoint x="209.98878101402374" y="290" as="targetPoint" />
          </mxGeometry>
        </mxCell>
        <mxCell id="ZfB3DJJ1F0PXd_A4hIv3-28" value="добавление заказа" style="endArrow=open;endFill=1;endSize=12;html=1;entryX=0.021;entryY=0.114;entryDx=0;entryDy=0;entryPerimeter=0;rounded=0;" parent="1" target="ZfB3DJJ1F0PXd_A4hIv3-26" edge="1">
          <mxGeometry width="160" relative="1" as="geometry">
            <mxPoint x="80" y="760" as="sourcePoint" />
            <mxPoint x="200" y="760" as="targetPoint" />
          </mxGeometry>
        </mxCell>
        <mxCell id="ZfB3DJJ1F0PXd_A4hIv3-29" value="" style="whiteSpace=wrap;html=1;" parent="1" vertex="1">
          <mxGeometry x="345" y="750" width="10" height="120" as="geometry" />
        </mxCell>
        <mxCell id="ZfB3DJJ1F0PXd_A4hIv3-30" value="" style="endArrow=none;dashed=1;html=1;dashPattern=1 3;strokeWidth=2;startArrow=none;rounded=0;" parent="1" source="ZfB3DJJ1F0PXd_A4hIv3-41" target="ZfB3DJJ1F0PXd_A4hIv3-29" edge="1">
          <mxGeometry width="50" height="50" relative="1" as="geometry">
            <mxPoint x="349.84000000000015" y="1592" as="sourcePoint" />
            <mxPoint x="349.5" y="580" as="targetPoint" />
          </mxGeometry>
        </mxCell>
        <mxCell id="ZfB3DJJ1F0PXd_A4hIv3-31" value="отображение &lt;br&gt;полей ввода" style="endArrow=open;endFill=1;endSize=12;html=1;rounded=0;" parent="1" edge="1">
          <mxGeometry width="160" relative="1" as="geometry">
            <mxPoint x="205" y="770" as="sourcePoint" />
            <mxPoint x="340" y="770" as="targetPoint" />
          </mxGeometry>
        </mxCell>
        <mxCell id="ZfB3DJJ1F0PXd_A4hIv3-26" value="" style="whiteSpace=wrap;html=1;" parent="1" vertex="1">
          <mxGeometry x="205" y="750" width="10" height="60" as="geometry" />
        </mxCell>
        <mxCell id="ZfB3DJJ1F0PXd_A4hIv3-35" value="выбор ноутбука" style="endArrow=open;endFill=1;endSize=12;html=1;entryX=-0.089;entryY=0.568;entryDx=0;entryDy=0;rounded=0;entryPerimeter=0;" parent="1" target="ZfB3DJJ1F0PXd_A4hIv3-29" edge="1">
          <mxGeometry x="-0.4068" width="160" relative="1" as="geometry">
            <mxPoint x="82" y="817" as="sourcePoint" />
            <mxPoint x="240" y="820" as="targetPoint" />
            <mxPoint as="offset" />
          </mxGeometry>
        </mxCell>
        <mxCell id="ZfB3DJJ1F0PXd_A4hIv3-37" value="" style="whiteSpace=wrap;html=1;" parent="1" vertex="1">
          <mxGeometry x="485" y="830" width="10" height="40" as="geometry" />
        </mxCell>
        <mxCell id="ZfB3DJJ1F0PXd_A4hIv3-38" value="" style="endArrow=none;dashed=1;html=1;dashPattern=1 3;strokeWidth=2;startArrow=none;rounded=0;" parent="1" source="ZfB3DJJ1F0PXd_A4hIv3-46" target="ZfB3DJJ1F0PXd_A4hIv3-37" edge="1">
          <mxGeometry width="50" height="50" relative="1" as="geometry">
            <mxPoint x="489.8399999999999" y="1592" as="sourcePoint" />
            <mxPoint x="489.99539347408836" y="580" as="targetPoint" />
          </mxGeometry>
        </mxCell>
        <mxCell id="ZfB3DJJ1F0PXd_A4hIv3-39" value="получение списка &lt;br&gt;клиентов" style="endArrow=open;endFill=1;endSize=12;html=1;entryX=0;entryY=0.25;entryDx=0;entryDy=0;rounded=0;" parent="1" target="ZfB3DJJ1F0PXd_A4hIv3-37" edge="1">
          <mxGeometry x="0.0714" width="160" relative="1" as="geometry">
            <mxPoint x="345" y="840" as="sourcePoint" />
            <mxPoint x="608" y="840.5" as="targetPoint" />
            <mxPoint as="offset" />
          </mxGeometry>
        </mxCell>
        <mxCell id="ZfB3DJJ1F0PXd_A4hIv3-41" value="" style="whiteSpace=wrap;html=1;" parent="1" vertex="1">
          <mxGeometry x="345" y="900" width="10" height="130" as="geometry" />
        </mxCell>
        <mxCell id="ZfB3DJJ1F0PXd_A4hIv3-42" value="" style="endArrow=none;dashed=1;html=1;dashPattern=1 3;strokeWidth=2;rounded=0;" parent="1" target="ZfB3DJJ1F0PXd_A4hIv3-41" edge="1">
          <mxGeometry width="50" height="50" relative="1" as="geometry">
            <mxPoint x="350" y="1720" as="sourcePoint" />
            <mxPoint x="349.99096612296125" y="400" as="targetPoint" />
          </mxGeometry>
        </mxCell>
        <mxCell id="ZfB3DJJ1F0PXd_A4hIv3-43" value="выбор клиента" style="endArrow=open;endFill=1;endSize=12;html=1;entryX=-0.087;entryY=0.314;entryDx=0;entryDy=0;rounded=0;entryPerimeter=0;" parent="1" edge="1" target="ZfB3DJJ1F0PXd_A4hIv3-41">
          <mxGeometry x="-0.0266" width="160" relative="1" as="geometry">
            <mxPoint x="80" y="940" as="sourcePoint" />
            <mxPoint x="343" y="940.5" as="targetPoint" />
            <mxPoint as="offset" />
          </mxGeometry>
        </mxCell>
        <mxCell id="ZfB3DJJ1F0PXd_A4hIv3-45" value="отображение &lt;br&gt;списка клиентов" style="edgeStyle=orthogonalEdgeStyle;html=1;align=left;spacingLeft=2;endArrow=block;rounded=0;entryX=1.05;entryY=0.614;entryDx=0;entryDy=0;entryPerimeter=0;" parent="1" edge="1" target="ZfB3DJJ1F0PXd_A4hIv3-41">
          <mxGeometry x="0.0087" y="-25" relative="1" as="geometry">
            <mxPoint x="354" y="920" as="sourcePoint" />
            <Array as="points">
              <mxPoint x="384" y="920" />
              <mxPoint x="384" y="980" />
              <mxPoint x="370" y="980" />
            </Array>
            <mxPoint x="360" y="980" as="targetPoint" />
            <mxPoint as="offset" />
          </mxGeometry>
        </mxCell>
        <mxCell id="ZfB3DJJ1F0PXd_A4hIv3-46" value="" style="whiteSpace=wrap;html=1;" parent="1" vertex="1">
          <mxGeometry x="485" y="880" width="10" height="210" as="geometry" />
        </mxCell>
        <mxCell id="ZfB3DJJ1F0PXd_A4hIv3-47" value="" style="endArrow=none;dashed=1;html=1;dashPattern=1 3;strokeWidth=2;rounded=0;" parent="1" target="ZfB3DJJ1F0PXd_A4hIv3-46" edge="1">
          <mxGeometry width="50" height="50" relative="1" as="geometry">
            <mxPoint x="490" y="1720" as="sourcePoint" />
            <mxPoint x="489.9956873315364" y="430" as="targetPoint" />
          </mxGeometry>
        </mxCell>
        <mxCell id="ZfB3DJJ1F0PXd_A4hIv3-48" value="Комплектующее изделие" style="whiteSpace=wrap;html=1;" parent="1" vertex="1">
          <mxGeometry x="570" y="80" width="120" height="60" as="geometry" />
        </mxCell>
        <mxCell id="ZfB3DJJ1F0PXd_A4hIv3-53" value="получение списка клиентов" style="endArrow=open;endFill=1;endSize=12;html=1;entryX=1.156;entryY=0.542;entryDx=0;entryDy=0;exitX=0.022;exitY=0.045;exitDx=0;exitDy=0;exitPerimeter=0;rounded=0;entryPerimeter=0;labelBackgroundColor=default;" parent="1" source="ZfB3DJJ1F0PXd_A4hIv3-46" target="ZfB3DJJ1F0PXd_A4hIv3-51" edge="1">
          <mxGeometry x="0.1117" width="160" relative="1" as="geometry">
            <mxPoint x="625" y="854.6600000000001" as="sourcePoint" />
            <mxPoint x="765" y="854.6600000000001" as="targetPoint" />
            <mxPoint as="offset" />
          </mxGeometry>
        </mxCell>
        <mxCell id="ZfB3DJJ1F0PXd_A4hIv3-56" value="список клиентов" style="html=1;verticalAlign=bottom;endArrow=open;dashed=1;endSize=8;entryX=-0.06;entryY=0.076;entryDx=0;entryDy=0;entryPerimeter=0;rounded=0;exitX=1.087;exitY=0.722;exitDx=0;exitDy=0;exitPerimeter=0;" parent="1" target="ZfB3DJJ1F0PXd_A4hIv3-41" edge="1" source="ZfB3DJJ1F0PXd_A4hIv3-51">
          <mxGeometry x="-0.0678" y="-8" relative="1" as="geometry">
            <mxPoint x="765" y="910" as="sourcePoint" />
            <mxPoint x="685" y="910" as="targetPoint" />
            <mxPoint as="offset" />
          </mxGeometry>
        </mxCell>
        <mxCell id="ZfB3DJJ1F0PXd_A4hIv3-57" value="получение списка &lt;br&gt;комплектующих" style="endArrow=open;endFill=1;endSize=12;html=1;entryX=0;entryY=0.75;entryDx=0;entryDy=0;rounded=0;" parent="1" edge="1">
          <mxGeometry x="-0.0266" width="160" relative="1" as="geometry">
            <mxPoint x="360" y="1021" as="sourcePoint" />
            <mxPoint x="485" y="1020.4999999999999" as="targetPoint" />
            <mxPoint as="offset" />
          </mxGeometry>
        </mxCell>
        <mxCell id="ZfB3DJJ1F0PXd_A4hIv3-58" value="" style="endArrow=none;dashed=1;html=1;dashPattern=1 3;strokeWidth=2;startArrow=none;rounded=0;" parent="1" source="ZfB3DJJ1F0PXd_A4hIv3-59" edge="1">
          <mxGeometry width="50" height="50" relative="1" as="geometry">
            <mxPoint x="629.8400000000001" y="1152" as="sourcePoint" />
            <mxPoint x="629.5" y="140" as="targetPoint" />
          </mxGeometry>
        </mxCell>
        <mxCell id="ZfB3DJJ1F0PXd_A4hIv3-59" value="" style="whiteSpace=wrap;html=1;" parent="1" vertex="1">
          <mxGeometry x="625" y="1030" width="10" height="110" as="geometry" />
        </mxCell>
        <mxCell id="ZfB3DJJ1F0PXd_A4hIv3-60" value="" style="endArrow=none;dashed=1;html=1;dashPattern=1 3;strokeWidth=2;rounded=0;" parent="1" target="ZfB3DJJ1F0PXd_A4hIv3-59" edge="1">
          <mxGeometry width="50" height="50" relative="1" as="geometry">
            <mxPoint x="630" y="1720" as="sourcePoint" />
            <mxPoint x="629.5" y="140" as="targetPoint" />
          </mxGeometry>
        </mxCell>
        <mxCell id="ZfB3DJJ1F0PXd_A4hIv3-61" value="получение списка &lt;br&gt;комплектующих" style="endArrow=open;endFill=1;endSize=12;html=1;entryX=0;entryY=0.173;entryDx=0;entryDy=0;entryPerimeter=0;rounded=0;" parent="1" target="ZfB3DJJ1F0PXd_A4hIv3-59" edge="1">
          <mxGeometry x="-0.0266" width="160" relative="1" as="geometry">
            <mxPoint x="495" y="1050.5" as="sourcePoint" />
            <mxPoint x="620" y="1050" as="targetPoint" />
            <mxPoint as="offset" />
          </mxGeometry>
        </mxCell>
        <mxCell id="ZfB3DJJ1F0PXd_A4hIv3-62" value="&lt;span style=&quot;background-color: rgb(255, 255, 255);&quot;&gt;список &lt;br&gt;комплектующих&lt;/span&gt;" style="html=1;verticalAlign=bottom;endArrow=open;dashed=1;endSize=8;entryX=0.88;entryY=0.062;entryDx=0;entryDy=0;entryPerimeter=0;rounded=0;exitX=-0.24;exitY=0.907;exitDx=0;exitDy=0;exitPerimeter=0;" parent="1" edge="1" target="ZfB3DJJ1F0PXd_A4hIv3-63" source="ZfB3DJJ1F0PXd_A4hIv3-59">
          <mxGeometry x="-0.0521" y="9" relative="1" as="geometry">
            <mxPoint x="620" y="1130" as="sourcePoint" />
            <mxPoint x="495" y="1131.96" as="targetPoint" />
            <mxPoint as="offset" />
          </mxGeometry>
        </mxCell>
        <mxCell id="ZfB3DJJ1F0PXd_A4hIv3-63" value="" style="whiteSpace=wrap;html=1;" parent="1" vertex="1">
          <mxGeometry x="485" y="1120" width="10" height="150" as="geometry" />
        </mxCell>
        <mxCell id="ZfB3DJJ1F0PXd_A4hIv3-64" value="" style="whiteSpace=wrap;html=1;" parent="1" vertex="1">
          <mxGeometry x="70" y="1140" width="10" height="90" as="geometry" />
        </mxCell>
        <mxCell id="ZfB3DJJ1F0PXd_A4hIv3-65" value="" style="endArrow=none;dashed=1;html=1;dashPattern=1 3;strokeWidth=2;rounded=0;" parent="1" target="ZfB3DJJ1F0PXd_A4hIv3-64" edge="1">
          <mxGeometry width="50" height="50" relative="1" as="geometry">
            <mxPoint x="74.83999999999992" y="1152" as="sourcePoint" />
            <mxPoint x="74.97720488466757" y="520" as="targetPoint" />
          </mxGeometry>
        </mxCell>
        <mxCell id="ZfB3DJJ1F0PXd_A4hIv3-66" value="выбор необходимых комплектующих" style="endArrow=open;endFill=1;endSize=12;html=1;entryX=0;entryY=0.35;entryDx=0;entryDy=0;entryPerimeter=0;rounded=0;" parent="1" target="ZfB3DJJ1F0PXd_A4hIv3-63" edge="1">
          <mxGeometry width="160" relative="1" as="geometry">
            <mxPoint x="80" y="1170" as="sourcePoint" />
            <mxPoint x="240" y="1170" as="targetPoint" />
          </mxGeometry>
        </mxCell>
        <mxCell id="ZfB3DJJ1F0PXd_A4hIv3-67" value="сохранить заказ" style="endArrow=open;endFill=1;endSize=12;html=1;entryX=0;entryY=0.35;entryDx=0;entryDy=0;entryPerimeter=0;rounded=0;" parent="1" edge="1">
          <mxGeometry width="160" relative="1" as="geometry">
            <mxPoint x="80" y="1210.5" as="sourcePoint" />
            <mxPoint x="485" y="1209.5" as="targetPoint" />
          </mxGeometry>
        </mxCell>
        <mxCell id="ZfB3DJJ1F0PXd_A4hIv3-68" value="отображение &lt;br&gt;списка &lt;br&gt;комплектующих" style="edgeStyle=orthogonalEdgeStyle;html=1;align=left;spacingLeft=2;endArrow=block;entryX=1.034;entryY=0.736;entryDx=0;entryDy=0;entryPerimeter=0;rounded=0;" parent="1" edge="1" target="ZfB3DJJ1F0PXd_A4hIv3-63">
          <mxGeometry x="0.0087" y="-25" relative="1" as="geometry">
            <mxPoint x="495" y="1170" as="sourcePoint" />
            <Array as="points">
              <mxPoint x="525" y="1170" />
              <mxPoint x="525" y="1230" />
              <mxPoint x="495" y="1230" />
            </Array>
            <mxPoint x="497.6200000000001" y="1231.6399999999999" as="targetPoint" />
            <mxPoint as="offset" />
          </mxGeometry>
        </mxCell>
        <mxCell id="ZfB3DJJ1F0PXd_A4hIv3-75" value="сохранение" style="endArrow=classic;html=1;exitX=0;exitY=0.5;exitDx=0;exitDy=0;rounded=0;entryX=1.016;entryY=0.205;entryDx=0;entryDy=0;entryPerimeter=0;" parent="1" target="ZfB3DJJ1F0PXd_A4hIv3-73" edge="1" source="ZfB3DJJ1F0PXd_A4hIv3-71">
          <mxGeometry width="50" height="50" relative="1" as="geometry">
            <mxPoint x="635" y="1314.5" as="sourcePoint" />
            <mxPoint x="-960" y="1295" as="targetPoint" />
          </mxGeometry>
        </mxCell>
        <mxCell id="ZfB3DJJ1F0PXd_A4hIv3-76" value="передача управления" style="endArrow=open;endFill=1;endSize=12;html=1;entryX=1.08;entryY=0.309;entryDx=0;entryDy=0;rounded=0;entryPerimeter=0;exitX=-0.008;exitY=0.866;exitDx=0;exitDy=0;exitPerimeter=0;" parent="1" target="ZfB3DJJ1F0PXd_A4hIv3-69" edge="1" source="ZfB3DJJ1F0PXd_A4hIv3-63">
          <mxGeometry x="-0.0372" y="9" width="160" relative="1" as="geometry">
            <mxPoint x="480" y="1250" as="sourcePoint" />
            <mxPoint x="635" y="1250" as="targetPoint" />
            <mxPoint as="offset" />
          </mxGeometry>
        </mxCell>
        <mxCell id="aEHaDjH2-V7Qz7xrTCSI-2" value="заказ" style="whiteSpace=wrap;html=1;" parent="1" vertex="1">
          <mxGeometry x="-380" y="80" width="120" height="60" as="geometry" />
        </mxCell>
        <mxCell id="aEHaDjH2-V7Qz7xrTCSI-3" value="корзина&amp;nbsp;" style="whiteSpace=wrap;html=1;labelBackgroundColor=none;" parent="1" vertex="1">
          <mxGeometry x="-510" y="80" width="120" height="60" as="geometry" />
        </mxCell>
        <mxCell id="aEHaDjH2-V7Qz7xrTCSI-4" value="заведующий складом" style="whiteSpace=wrap;html=1;" parent="1" vertex="1">
          <mxGeometry x="-640" y="80" width="120" height="60" as="geometry" />
        </mxCell>
        <mxCell id="aEHaDjH2-V7Qz7xrTCSI-6" value="каталог" style="whiteSpace=wrap;html=1;" parent="1" vertex="1">
          <mxGeometry x="-770" y="80" width="120" height="60" as="geometry" />
        </mxCell>
        <mxCell id="aEHaDjH2-V7Qz7xrTCSI-7" value="" style="whiteSpace=wrap;html=1;" parent="1" vertex="1">
          <mxGeometry x="-900" y="80" width="120" height="60" as="geometry" />
        </mxCell>
        <mxCell id="aEHaDjH2-V7Qz7xrTCSI-13" value="" style="endArrow=none;dashed=1;html=1;dashPattern=1 3;strokeWidth=2;startArrow=none;rounded=0;" parent="1" source="aEHaDjH2-V7Qz7xrTCSI-24" edge="1">
          <mxGeometry x="0.0594" y="59" width="50" height="50" relative="1" as="geometry">
            <mxPoint x="-972" y="1213.3333333333333" as="sourcePoint" />
            <mxPoint x="-970.8299999999999" y="150" as="targetPoint" />
            <mxPoint as="offset" />
          </mxGeometry>
        </mxCell>
        <mxCell id="aEHaDjH2-V7Qz7xrTCSI-14" value="" style="endArrow=none;dashed=1;html=1;dashPattern=1 3;strokeWidth=2;startArrow=none;rounded=0;" parent="1" source="aEHaDjH2-V7Qz7xrTCSI-27" edge="1">
          <mxGeometry width="50" height="50" relative="1" as="geometry">
            <mxPoint x="-840.83" y="1213.333333333333" as="sourcePoint" />
            <mxPoint x="-839.66" y="150" as="targetPoint" />
          </mxGeometry>
        </mxCell>
        <mxCell id="aEHaDjH2-V7Qz7xrTCSI-15" value="" style="endArrow=none;dashed=1;html=1;dashPattern=1 3;strokeWidth=2;startArrow=none;rounded=0;" parent="1" source="aEHaDjH2-V7Qz7xrTCSI-34" edge="1">
          <mxGeometry width="50" height="50" relative="1" as="geometry">
            <mxPoint x="-710.83" y="1213.333333333333" as="sourcePoint" />
            <mxPoint x="-709.66" y="150" as="targetPoint" />
          </mxGeometry>
        </mxCell>
        <mxCell id="aEHaDjH2-V7Qz7xrTCSI-17" value="" style="endArrow=none;dashed=1;html=1;dashPattern=1 3;strokeWidth=2;startArrow=none;rounded=0;" parent="1" source="aEHaDjH2-V7Qz7xrTCSI-40" edge="1">
          <mxGeometry width="50" height="50" relative="1" as="geometry">
            <mxPoint x="-580.25" y="1203.333333333333" as="sourcePoint" />
            <mxPoint x="-579.0799999999999" y="140" as="targetPoint" />
          </mxGeometry>
        </mxCell>
        <mxCell id="aEHaDjH2-V7Qz7xrTCSI-18" value="" style="endArrow=none;dashed=1;html=1;dashPattern=1 3;strokeWidth=2;startArrow=none;rounded=0;" parent="1" source="aEHaDjH2-V7Qz7xrTCSI-48" edge="1">
          <mxGeometry width="50" height="50" relative="1" as="geometry">
            <mxPoint x="-450.24999999999994" y="1203.333333333333" as="sourcePoint" />
            <mxPoint x="-449.07999999999987" y="140" as="targetPoint" />
          </mxGeometry>
        </mxCell>
        <mxCell id="aEHaDjH2-V7Qz7xrTCSI-20" value="" style="endArrow=none;dashed=1;html=1;dashPattern=1 3;strokeWidth=2;startArrow=none;rounded=0;" parent="1" source="aEHaDjH2-V7Qz7xrTCSI-55" edge="1">
          <mxGeometry width="50" height="50" relative="1" as="geometry">
            <mxPoint x="-320.2499999999999" y="1203.333333333333" as="sourcePoint" />
            <mxPoint x="-319.0799999999998" y="140" as="targetPoint" />
          </mxGeometry>
        </mxCell>
        <mxCell id="aEHaDjH2-V7Qz7xrTCSI-24" value="" style="whiteSpace=wrap;html=1;" parent="1" vertex="1">
          <mxGeometry x="-975" y="160" width="10" height="110" as="geometry" />
        </mxCell>
        <mxCell id="aEHaDjH2-V7Qz7xrTCSI-25" value="" style="endArrow=none;dashed=1;html=1;dashPattern=1 3;strokeWidth=2;startArrow=none;rounded=0;" parent="1" source="aEHaDjH2-V7Qz7xrTCSI-32" target="aEHaDjH2-V7Qz7xrTCSI-24" edge="1">
          <mxGeometry x="0.0594" y="59" width="50" height="50" relative="1" as="geometry">
            <mxPoint x="-972" y="1213.3333333333333" as="sourcePoint" />
            <mxPoint x="-970.8299999999999" y="150" as="targetPoint" />
            <mxPoint as="offset" />
          </mxGeometry>
        </mxCell>
        <mxCell id="aEHaDjH2-V7Qz7xrTCSI-26" value="параметры работы с клиентом" style="whiteSpace=wrap;html=1;" parent="1" vertex="1">
          <mxGeometry x="-900" y="80" width="120" height="60" as="geometry" />
        </mxCell>
        <mxCell id="aEHaDjH2-V7Qz7xrTCSI-27" value="" style="whiteSpace=wrap;html=1;" parent="1" vertex="1">
          <mxGeometry x="-845" y="160" width="10" height="110" as="geometry" />
        </mxCell>
        <mxCell id="aEHaDjH2-V7Qz7xrTCSI-28" value="" style="endArrow=none;dashed=1;html=1;dashPattern=1 3;strokeWidth=2;startArrow=none;rounded=0;" parent="1" target="aEHaDjH2-V7Qz7xrTCSI-27" edge="1">
          <mxGeometry width="50" height="50" relative="1" as="geometry">
            <mxPoint x="-841" y="1720" as="sourcePoint" />
            <mxPoint x="-839.6599999999999" y="150" as="targetPoint" />
          </mxGeometry>
        </mxCell>
        <mxCell id="aEHaDjH2-V7Qz7xrTCSI-29" value="авторизация" style="endArrow=open;endFill=1;endSize=12;html=1;rounded=0;" parent="1" edge="1">
          <mxGeometry width="160" relative="1" as="geometry">
            <mxPoint x="-965" y="170" as="sourcePoint" />
            <mxPoint x="-850" y="170" as="targetPoint" />
          </mxGeometry>
        </mxCell>
        <mxCell id="aEHaDjH2-V7Qz7xrTCSI-30" value="проверка &lt;br&gt;авторизации" style="edgeStyle=orthogonalEdgeStyle;html=1;align=left;spacingLeft=2;endArrow=block;entryX=1.262;entryY=0.628;entryDx=0;entryDy=0;entryPerimeter=0;rounded=0;" parent="1" edge="1">
          <mxGeometry x="0.0087" y="-25" relative="1" as="geometry">
            <mxPoint x="-835" y="184.18" as="sourcePoint" />
            <Array as="points">
              <mxPoint x="-805" y="184.18" />
              <mxPoint x="-805" y="244.18" />
              <mxPoint x="-830" y="244.18" />
              <mxPoint x="-830" y="246.18" />
            </Array>
            <mxPoint x="-832.3800000000001" y="245.8200000000001" as="targetPoint" />
            <mxPoint as="offset" />
          </mxGeometry>
        </mxCell>
        <mxCell id="aEHaDjH2-V7Qz7xrTCSI-32" value="" style="whiteSpace=wrap;html=1;" parent="1" vertex="1">
          <mxGeometry x="-975" y="290" width="10" height="80" as="geometry" />
        </mxCell>
        <mxCell id="aEHaDjH2-V7Qz7xrTCSI-33" value="" style="endArrow=none;dashed=1;html=1;dashPattern=1 3;strokeWidth=2;startArrow=none;rounded=0;" parent="1" source="HXMosi2Rfnzd-5hlv8M6-1" target="aEHaDjH2-V7Qz7xrTCSI-32" edge="1">
          <mxGeometry x="0.0594" y="59" width="50" height="50" relative="1" as="geometry">
            <mxPoint x="-972" y="1213.3333333333333" as="sourcePoint" />
            <mxPoint x="-970.1101836393991" y="270" as="targetPoint" />
            <mxPoint as="offset" />
          </mxGeometry>
        </mxCell>
        <mxCell id="aEHaDjH2-V7Qz7xrTCSI-34" value="" style="whiteSpace=wrap;html=1;" parent="1" vertex="1">
          <mxGeometry x="-715" y="320" width="10" height="140" as="geometry" />
        </mxCell>
        <mxCell id="aEHaDjH2-V7Qz7xrTCSI-35" value="" style="endArrow=none;dashed=1;html=1;dashPattern=1 3;strokeWidth=2;startArrow=none;rounded=0;" parent="1" target="aEHaDjH2-V7Qz7xrTCSI-34" edge="1">
          <mxGeometry width="50" height="50" relative="1" as="geometry">
            <mxPoint x="-712" y="1720" as="sourcePoint" />
            <mxPoint x="-709.6599999999999" y="150" as="targetPoint" />
          </mxGeometry>
        </mxCell>
        <mxCell id="aEHaDjH2-V7Qz7xrTCSI-36" value="просмотр каталога" style="endArrow=open;endFill=1;endSize=12;html=1;exitX=1.5;exitY=0.138;exitDx=0;exitDy=0;exitPerimeter=0;rounded=0;" parent="1" source="aEHaDjH2-V7Qz7xrTCSI-32" edge="1">
          <mxGeometry width="160" relative="1" as="geometry">
            <mxPoint x="-903" y="300" as="sourcePoint" />
            <mxPoint x="-655" y="301" as="targetPoint" />
          </mxGeometry>
        </mxCell>
        <mxCell id="aEHaDjH2-V7Qz7xrTCSI-40" value="" style="whiteSpace=wrap;html=1;" parent="1" vertex="1">
          <mxGeometry x="-585" y="290" width="10" height="80" as="geometry" />
        </mxCell>
        <mxCell id="aEHaDjH2-V7Qz7xrTCSI-41" value="" style="endArrow=none;dashed=1;html=1;dashPattern=1 3;strokeWidth=2;startArrow=none;rounded=0;" parent="1" target="aEHaDjH2-V7Qz7xrTCSI-40" edge="1">
          <mxGeometry width="50" height="50" relative="1" as="geometry">
            <mxPoint x="-580" y="1720" as="sourcePoint" />
            <mxPoint x="-579.0799999999999" y="140" as="targetPoint" />
          </mxGeometry>
        </mxCell>
        <mxCell id="aEHaDjH2-V7Qz7xrTCSI-42" value="выбор товара" style="endArrow=open;endFill=1;endSize=12;html=1;entryX=-0.13;entryY=0.12;entryDx=0;entryDy=0;entryPerimeter=0;rounded=0;" parent="1" target="aEHaDjH2-V7Qz7xrTCSI-40" edge="1">
          <mxGeometry width="160" relative="1" as="geometry">
            <mxPoint x="-700" y="300" as="sourcePoint" />
            <mxPoint x="-645" y="300" as="targetPoint" />
          </mxGeometry>
        </mxCell>
        <mxCell id="aEHaDjH2-V7Qz7xrTCSI-43" value="проверка наличия&lt;br&gt;товара" style="endArrow=open;endFill=1;endSize=12;html=1;entryX=1.435;entryY=0.685;entryDx=0;entryDy=0;entryPerimeter=0;rounded=0;" parent="1" target="aEHaDjH2-V7Qz7xrTCSI-40" edge="1">
          <mxGeometry x="0.0239" width="160" relative="1" as="geometry">
            <mxPoint x="-575" y="309" as="sourcePoint" />
            <mxPoint x="-460" y="309" as="targetPoint" />
            <Array as="points">
              <mxPoint x="-520" y="310" />
              <mxPoint x="-520" y="345" />
            </Array>
            <mxPoint as="offset" />
          </mxGeometry>
        </mxCell>
        <mxCell id="aEHaDjH2-V7Qz7xrTCSI-45" value="отправка отчёта по &lt;br&gt;наличию товара" style="html=1;verticalAlign=bottom;endArrow=open;dashed=1;endSize=8;rounded=0;entryX=0.958;entryY=0.795;entryDx=0;entryDy=0;entryPerimeter=0;" parent="1" edge="1" target="aEHaDjH2-V7Qz7xrTCSI-32">
          <mxGeometry x="-0.0435" y="30" relative="1" as="geometry">
            <mxPoint x="-455" y="354.57" as="sourcePoint" />
            <mxPoint x="-960" y="354" as="targetPoint" />
            <mxPoint as="offset" />
          </mxGeometry>
        </mxCell>
        <mxCell id="aEHaDjH2-V7Qz7xrTCSI-48" value="" style="whiteSpace=wrap;html=1;" parent="1" vertex="1">
          <mxGeometry x="-455" y="380" width="10" height="80" as="geometry" />
        </mxCell>
        <mxCell id="aEHaDjH2-V7Qz7xrTCSI-49" value="" style="endArrow=none;dashed=1;html=1;dashPattern=1 3;strokeWidth=2;startArrow=none;rounded=0;" parent="1" target="aEHaDjH2-V7Qz7xrTCSI-48" edge="1">
          <mxGeometry width="50" height="50" relative="1" as="geometry">
            <mxPoint x="-451" y="1720" as="sourcePoint" />
            <mxPoint x="-449.0799999999999" y="140" as="targetPoint" />
          </mxGeometry>
        </mxCell>
        <mxCell id="aEHaDjH2-V7Qz7xrTCSI-50" value="добавление товара в корзину" style="endArrow=open;endFill=1;endSize=12;html=1;entryX=0;entryY=0.5;entryDx=0;entryDy=0;rounded=0;" parent="1" target="aEHaDjH2-V7Qz7xrTCSI-48" edge="1">
          <mxGeometry width="160" relative="1" as="geometry">
            <mxPoint x="-700" y="420" as="sourcePoint" />
            <mxPoint x="-605" y="419.57" as="targetPoint" />
          </mxGeometry>
        </mxCell>
        <mxCell id="aEHaDjH2-V7Qz7xrTCSI-55" value="" style="whiteSpace=wrap;html=1;" parent="1" vertex="1">
          <mxGeometry x="-325" y="380" width="10" height="80" as="geometry" />
        </mxCell>
        <mxCell id="aEHaDjH2-V7Qz7xrTCSI-56" value="" style="endArrow=none;dashed=1;html=1;dashPattern=1 3;strokeWidth=2;startArrow=none;rounded=0;" parent="1" target="aEHaDjH2-V7Qz7xrTCSI-55" edge="1" source="ZfB3DJJ1F0PXd_A4hIv3-69">
          <mxGeometry width="50" height="50" relative="1" as="geometry">
            <mxPoint x="-320" y="1720" as="sourcePoint" />
            <mxPoint x="-319.0799999999999" y="140" as="targetPoint" />
          </mxGeometry>
        </mxCell>
        <mxCell id="aEHaDjH2-V7Qz7xrTCSI-57" value="оформление заказа" style="endArrow=open;endFill=1;endSize=12;html=1;rounded=0;" parent="1" edge="1">
          <mxGeometry x="-0.0441" y="10" width="160" relative="1" as="geometry">
            <mxPoint x="-439.9999999999998" y="419.56999999999994" as="sourcePoint" />
            <mxPoint x="-325" y="420" as="targetPoint" />
            <mxPoint as="offset" />
          </mxGeometry>
        </mxCell>
        <mxCell id="HXMosi2Rfnzd-5hlv8M6-1" value="" style="whiteSpace=wrap;html=1;" parent="1" vertex="1">
          <mxGeometry x="-975" y="485" width="10" height="80" as="geometry" />
        </mxCell>
        <mxCell id="HXMosi2Rfnzd-5hlv8M6-2" value="" style="endArrow=none;dashed=1;html=1;dashPattern=1 3;strokeWidth=2;startArrow=none;rounded=0;" parent="1" source="ZfB3DJJ1F0PXd_A4hIv3-51" target="HXMosi2Rfnzd-5hlv8M6-1" edge="1">
          <mxGeometry x="0.0594" y="59" width="50" height="50" relative="1" as="geometry">
            <mxPoint x="-970" y="1720" as="sourcePoint" />
            <mxPoint x="-970.0905660377357" y="370" as="targetPoint" />
            <mxPoint as="offset" />
          </mxGeometry>
        </mxCell>
        <mxCell id="HXMosi2Rfnzd-5hlv8M6-4" value="оплата заказа" style="endArrow=open;endFill=1;endSize=12;html=1;rounded=0;entryX=-0.09;entryY=0.369;entryDx=0;entryDy=0;entryPerimeter=0;" parent="1" edge="1" target="HXMosi2Rfnzd-5hlv8M6-5">
          <mxGeometry width="160" relative="1" as="geometry">
            <mxPoint x="-965" y="550" as="sourcePoint" />
            <mxPoint x="-190" y="550" as="targetPoint" />
          </mxGeometry>
        </mxCell>
        <mxCell id="HXMosi2Rfnzd-5hlv8M6-5" value="" style="whiteSpace=wrap;html=1;" parent="1" vertex="1">
          <mxGeometry x="-325" y="490" width="10" height="160" as="geometry" />
        </mxCell>
        <mxCell id="HXMosi2Rfnzd-5hlv8M6-6" value="выбор способа оплаты" style="html=1;verticalAlign=bottom;endArrow=open;dashed=1;endSize=8;rounded=0;exitX=0.009;exitY=0.067;exitDx=0;exitDy=0;exitPerimeter=0;entryX=0.958;entryY=0.183;entryDx=0;entryDy=0;entryPerimeter=0;" parent="1" edge="1" target="HXMosi2Rfnzd-5hlv8M6-1" source="HXMosi2Rfnzd-5hlv8M6-5">
          <mxGeometry x="-0.0196" y="10" relative="1" as="geometry">
            <mxPoint x="-195.00000000000045" y="500.56999999999994" as="sourcePoint" />
            <mxPoint x="-960" y="500" as="targetPoint" />
            <mxPoint as="offset" />
          </mxGeometry>
        </mxCell>
        <mxCell id="HXMosi2Rfnzd-5hlv8M6-8" value="подтверждение&amp;nbsp; &lt;br&gt;оплаты" style="endArrow=open;endFill=1;endSize=12;html=1;entryX=1;entryY=0.75;entryDx=0;entryDy=0;rounded=0;" parent="1" target="HXMosi2Rfnzd-5hlv8M6-5" edge="1">
          <mxGeometry x="-0.083" width="160" relative="1" as="geometry">
            <mxPoint x="-315" y="560" as="sourcePoint" />
            <mxPoint x="-71.30000000000018" y="499.9999999999999" as="targetPoint" />
            <Array as="points">
              <mxPoint x="-280" y="560" />
              <mxPoint x="-280" y="610" />
            </Array>
            <mxPoint as="offset" />
          </mxGeometry>
        </mxCell>
        <mxCell id="HXMosi2Rfnzd-5hlv8M6-9" value="передача заказа&lt;br&gt;менеджеру по работе с заказом" style="endArrow=open;endFill=1;endSize=12;html=1;rounded=0;exitX=0.979;exitY=0.929;exitDx=0;exitDy=0;exitPerimeter=0;" parent="1" edge="1" source="HXMosi2Rfnzd-5hlv8M6-5">
          <mxGeometry width="160" relative="1" as="geometry">
            <mxPoint x="-195" y="640.4" as="sourcePoint" />
            <mxPoint x="70" y="640" as="targetPoint" />
            <Array as="points">
              <mxPoint x="-60" y="640" />
            </Array>
          </mxGeometry>
        </mxCell>
        <mxCell id="e_84W81bHMhNglRJCe3D-2" value="Менеджер по доставке" style="rounded=0;whiteSpace=wrap;html=1;" parent="1" vertex="1">
          <mxGeometry x="710" y="80" width="120" height="60" as="geometry" />
        </mxCell>
        <mxCell id="e_84W81bHMhNglRJCe3D-3" value="" style="endArrow=none;dashed=1;html=1;dashPattern=1 3;strokeWidth=2;startArrow=none;rounded=0;" parent="1" source="e_84W81bHMhNglRJCe3D-5" edge="1">
          <mxGeometry width="50" height="50" relative="1" as="geometry">
            <mxPoint x="769" y="1720" as="sourcePoint" />
            <mxPoint x="768.75" y="140" as="targetPoint" />
          </mxGeometry>
        </mxCell>
        <mxCell id="e_84W81bHMhNglRJCe3D-5" value="" style="html=1;points=[];perimeter=orthogonalPerimeter;" parent="1" vertex="1">
          <mxGeometry x="765" y="1300" width="10" height="110" as="geometry" />
        </mxCell>
        <mxCell id="e_84W81bHMhNglRJCe3D-6" value="" style="endArrow=none;dashed=1;html=1;dashPattern=1 3;strokeWidth=2;startArrow=none;rounded=0;" parent="1" target="e_84W81bHMhNglRJCe3D-5" edge="1">
          <mxGeometry width="50" height="50" relative="1" as="geometry">
            <mxPoint x="769" y="1720" as="sourcePoint" />
            <mxPoint x="768.7500000000009" y="140" as="targetPoint" />
          </mxGeometry>
        </mxCell>
        <mxCell id="e_84W81bHMhNglRJCe3D-7" value="передача заказа&lt;br&gt;менеджеру по доставке" style="endArrow=open;endFill=1;endSize=12;html=1;rounded=0;exitX=1.057;exitY=0.621;exitDx=0;exitDy=0;exitPerimeter=0;" parent="1" target="e_84W81bHMhNglRJCe3D-5" edge="1" source="ZfB3DJJ1F0PXd_A4hIv3-73">
          <mxGeometry width="160" relative="1" as="geometry">
            <mxPoint x="-960" y="1324" as="sourcePoint" />
            <mxPoint x="1036.4300000000003" y="1326.1900000000003" as="targetPoint" />
            <Array as="points">
              <mxPoint x="700" y="1320" />
            </Array>
          </mxGeometry>
        </mxCell>
        <mxCell id="e_84W81bHMhNglRJCe3D-8" value="" style="html=1;points=[];perimeter=orthogonalPerimeter;" parent="1" vertex="1">
          <mxGeometry x="-585" y="1350" width="10" height="110" as="geometry" />
        </mxCell>
        <mxCell id="e_84W81bHMhNglRJCe3D-9" value="поиск ближайшего к клиенту склада в котором имеется его звказ" style="endArrow=open;endFill=1;endSize=12;html=1;rounded=0;entryX=1.3;entryY=0.224;entryDx=0;entryDy=0;entryPerimeter=0;" parent="1" source="e_84W81bHMhNglRJCe3D-5" target="e_84W81bHMhNglRJCe3D-8" edge="1">
          <mxGeometry width="160" relative="1" as="geometry">
            <mxPoint x="755" y="1390" as="sourcePoint" />
            <mxPoint x="915" y="1390" as="targetPoint" />
          </mxGeometry>
        </mxCell>
        <mxCell id="e_84W81bHMhNglRJCe3D-10" value="подготовка заказа&lt;br&gt;&amp;nbsp; к выдаче" style="endArrow=open;endFill=1;endSize=12;html=1;rounded=0;entryX=-0.075;entryY=0.798;entryDx=0;entryDy=0;entryPerimeter=0;" parent="1" target="e_84W81bHMhNglRJCe3D-8" edge="1">
          <mxGeometry x="0.0117" width="160" relative="1" as="geometry">
            <mxPoint x="-585" y="1380" as="sourcePoint" />
            <mxPoint x="-590" y="1470" as="targetPoint" />
            <Array as="points">
              <mxPoint x="-630" y="1380" />
              <mxPoint x="-630" y="1439" />
            </Array>
            <mxPoint as="offset" />
          </mxGeometry>
        </mxCell>
        <mxCell id="e_84W81bHMhNglRJCe3D-11" value="Доставщик" style="rounded=0;whiteSpace=wrap;html=1;" parent="1" vertex="1">
          <mxGeometry x="860" y="80" width="120" height="60" as="geometry" />
        </mxCell>
        <mxCell id="e_84W81bHMhNglRJCe3D-12" value="" style="endArrow=none;dashed=1;html=1;dashPattern=1 3;strokeWidth=2;startArrow=none;rounded=0;" parent="1" source="e_84W81bHMhNglRJCe3D-13" edge="1">
          <mxGeometry width="50" height="50" relative="1" as="geometry">
            <mxPoint x="919" y="1720" as="sourcePoint" />
            <mxPoint x="918.75" y="140" as="targetPoint" />
          </mxGeometry>
        </mxCell>
        <mxCell id="e_84W81bHMhNglRJCe3D-13" value="" style="html=1;points=[];perimeter=orthogonalPerimeter;" parent="1" vertex="1">
          <mxGeometry x="915" y="1440" width="10" height="110" as="geometry" />
        </mxCell>
        <mxCell id="e_84W81bHMhNglRJCe3D-14" value="" style="endArrow=none;dashed=1;html=1;dashPattern=1 3;strokeWidth=2;startArrow=none;rounded=0;" parent="1" target="e_84W81bHMhNglRJCe3D-13" edge="1">
          <mxGeometry width="50" height="50" relative="1" as="geometry">
            <mxPoint x="919" y="1720" as="sourcePoint" />
            <mxPoint x="918.7500000000009" y="140" as="targetPoint" />
          </mxGeometry>
        </mxCell>
        <mxCell id="e_84W81bHMhNglRJCe3D-16" value="передача заказа доставщику&amp;nbsp;" style="endArrow=open;endFill=1;endSize=12;html=1;rounded=0;exitX=1.178;exitY=0.977;exitDx=0;exitDy=0;exitPerimeter=0;" parent="1" source="e_84W81bHMhNglRJCe3D-8" target="e_84W81bHMhNglRJCe3D-13" edge="1">
          <mxGeometry width="160" relative="1" as="geometry">
            <mxPoint x="1195" y="1457.78" as="sourcePoint" />
            <mxPoint x="-292" y="1457.78" as="targetPoint" />
          </mxGeometry>
        </mxCell>
        <mxCell id="e_84W81bHMhNglRJCe3D-21" value="забор&lt;br&gt;заказа" style="endArrow=open;endFill=1;endSize=12;html=1;rounded=0;entryX=1.05;entryY=0.809;entryDx=0;entryDy=0;entryPerimeter=0;" parent="1" target="e_84W81bHMhNglRJCe3D-13" edge="1">
          <mxGeometry width="160" relative="1" as="geometry">
            <mxPoint x="925" y="1460" as="sourcePoint" />
            <mxPoint x="1085" y="1460" as="targetPoint" />
            <Array as="points">
              <mxPoint x="960" y="1460" />
              <mxPoint x="960" y="1529" />
            </Array>
          </mxGeometry>
        </mxCell>
        <mxCell id="e_84W81bHMhNglRJCe3D-22" value="" style="html=1;points=[];perimeter=orthogonalPerimeter;" parent="1" vertex="1">
          <mxGeometry x="-975" y="1530" width="10" height="80" as="geometry" />
        </mxCell>
        <mxCell id="e_84W81bHMhNglRJCe3D-23" value="" style="endArrow=none;dashed=1;html=1;dashPattern=1 3;strokeWidth=2;startArrow=none;rounded=0;" parent="1" target="e_84W81bHMhNglRJCe3D-22" edge="1">
          <mxGeometry x="0.0594" y="59" width="50" height="50" relative="1" as="geometry">
            <mxPoint x="-970.0000000000005" y="1720" as="sourcePoint" />
            <mxPoint x="-970.0000000000005" y="564.9999999999998" as="targetPoint" />
            <mxPoint as="offset" />
          </mxGeometry>
        </mxCell>
        <mxCell id="e_84W81bHMhNglRJCe3D-24" value="передача заказа клиенту" style="endArrow=open;endFill=1;endSize=12;html=1;rounded=0;exitX=-0.325;exitY=0.923;exitDx=0;exitDy=0;exitPerimeter=0;" parent="1" source="e_84W81bHMhNglRJCe3D-13" edge="1">
          <mxGeometry width="160" relative="1" as="geometry">
            <mxPoint x="325" y="1550" as="sourcePoint" />
            <mxPoint x="-960" y="1549" as="targetPoint" />
          </mxGeometry>
        </mxCell>
        <mxCell id="e_84W81bHMhNglRJCe3D-25" value="проверка &lt;br&gt;заказа" style="endArrow=open;endFill=1;endSize=12;html=1;rounded=0;entryX=0.05;entryY=0.847;entryDx=0;entryDy=0;entryPerimeter=0;" parent="1" edge="1">
          <mxGeometry width="160" relative="1" as="geometry">
            <mxPoint x="-975" y="1540" as="sourcePoint" />
            <mxPoint x="-974.5" y="1597.7600000000002" as="targetPoint" />
            <Array as="points">
              <mxPoint x="-1010" y="1540" />
              <mxPoint x="-1010" y="1598" />
            </Array>
          </mxGeometry>
        </mxCell>
        <mxCell id="ZfB3DJJ1F0PXd_A4hIv3-51" value="" style="whiteSpace=wrap;html=1;" parent="1" vertex="1">
          <mxGeometry x="-975" y="830" width="10" height="110" as="geometry" />
        </mxCell>
        <mxCell id="2SXMuyVqPVE-oEMScqRm-2" value="" style="endArrow=none;dashed=1;html=1;dashPattern=1 3;strokeWidth=2;startArrow=none;rounded=0;" edge="1" parent="1" source="ZfB3DJJ1F0PXd_A4hIv3-73" target="ZfB3DJJ1F0PXd_A4hIv3-51">
          <mxGeometry x="0.0594" y="59" width="50" height="50" relative="1" as="geometry">
            <mxPoint x="-970" y="1530" as="sourcePoint" />
            <mxPoint x="-970" y="565" as="targetPoint" />
            <mxPoint as="offset" />
          </mxGeometry>
        </mxCell>
        <mxCell id="2SXMuyVqPVE-oEMScqRm-4" value="" style="whiteSpace=wrap;html=1;" vertex="1" parent="1">
          <mxGeometry x="70" y="930" width="10" height="40" as="geometry" />
        </mxCell>
        <mxCell id="2SXMuyVqPVE-oEMScqRm-5" value="" style="endArrow=none;dashed=1;html=1;dashPattern=1 3;strokeWidth=2;startArrow=none;rounded=0;" edge="1" parent="1" target="2SXMuyVqPVE-oEMScqRm-4">
          <mxGeometry width="50" height="50" relative="1" as="geometry">
            <mxPoint x="72.99999999999955" y="1720" as="sourcePoint" />
            <mxPoint x="74.86813186813151" y="870" as="targetPoint" />
          </mxGeometry>
        </mxCell>
        <mxCell id="ZfB3DJJ1F0PXd_A4hIv3-69" value="" style="whiteSpace=wrap;html=1;" parent="1" vertex="1">
          <mxGeometry x="-325" y="1240" width="10" height="30" as="geometry" />
        </mxCell>
        <mxCell id="2SXMuyVqPVE-oEMScqRm-11" value="" style="endArrow=none;dashed=1;html=1;dashPattern=1 3;strokeWidth=2;startArrow=none;rounded=0;" edge="1" parent="1" source="ZfB3DJJ1F0PXd_A4hIv3-71" target="ZfB3DJJ1F0PXd_A4hIv3-69">
          <mxGeometry width="50" height="50" relative="1" as="geometry">
            <mxPoint x="-320" y="1720" as="sourcePoint" />
            <mxPoint x="-320" y="460" as="targetPoint" />
          </mxGeometry>
        </mxCell>
        <mxCell id="ZfB3DJJ1F0PXd_A4hIv3-71" value="" style="whiteSpace=wrap;html=1;" parent="1" vertex="1">
          <mxGeometry x="-325" y="1280" width="10" height="30" as="geometry" />
        </mxCell>
        <mxCell id="2SXMuyVqPVE-oEMScqRm-12" value="" style="endArrow=none;dashed=1;html=1;dashPattern=1 3;strokeWidth=2;startArrow=none;rounded=0;" edge="1" parent="1" target="ZfB3DJJ1F0PXd_A4hIv3-71">
          <mxGeometry width="50" height="50" relative="1" as="geometry">
            <mxPoint x="-320" y="1720" as="sourcePoint" />
            <mxPoint x="-320" y="1270" as="targetPoint" />
          </mxGeometry>
        </mxCell>
        <mxCell id="ZfB3DJJ1F0PXd_A4hIv3-73" value="" style="whiteSpace=wrap;html=1;" parent="1" vertex="1">
          <mxGeometry x="-975" y="1280" width="10" height="70" as="geometry" />
        </mxCell>
        <mxCell id="2SXMuyVqPVE-oEMScqRm-17" value="" style="endArrow=none;dashed=1;html=1;dashPattern=1 3;strokeWidth=2;startArrow=none;rounded=0;" edge="1" parent="1" source="e_84W81bHMhNglRJCe3D-22" target="ZfB3DJJ1F0PXd_A4hIv3-73">
          <mxGeometry x="0.0594" y="59" width="50" height="50" relative="1" as="geometry">
            <mxPoint x="-970" y="1530" as="sourcePoint" />
            <mxPoint x="-970" y="940" as="targetPoint" />
            <mxPoint as="offset" />
          </mxGeometry>
        </mxCell>
        <mxCell id="2SXMuyVqPVE-oEMScqRm-20" value="" style="shape=umlDestroy;whiteSpace=wrap;html=1;strokeWidth=3;labelBackgroundColor=none;" vertex="1" parent="1">
          <mxGeometry x="-987" y="1584" width="30" height="30" as="geometry" />
        </mxCell>
        <mxCell id="2SXMuyVqPVE-oEMScqRm-21" value="&lt;span style=&quot;&quot;&gt;Клиент&lt;/span&gt;" style="shape=umlActor;verticalLabelPosition=bottom;verticalAlign=top;html=1;outlineConnect=0;labelBackgroundColor=none;" vertex="1" parent="1">
          <mxGeometry x="-985" y="70" width="30" height="60" as="geometry" />
        </mxCell>
      </root>
    </mxGraphModel>
  </diagram>
</mxfile>
